<svg width="20" height="17" viewBox="0 0 20 17" fill="none" xmlns="http://www.w3.org/2000/svg">
<path d="M18.4465 10.9314C17.6258 12.1361 14.8904 14.0695 11.3078 15.9768C9.95267 16.6983 8.52909 17.0414 7.07636 16.9961C5.84769 16.9576 4.83265 16.6591 4.0914 16.4409C3.84923 16.3698 3.6399 16.3081 3.46372 16.2677C2.94192 16.1481 2.15525 15.8127 1.30503 15.3479C0.741495 15.0396 0.125166 14.6564 0.0180447 14.5116C0.0109851 14.5021 0.00638105 14.4935 0.00392556 14.4863C-0.0015993 14.4705 -0.00129237 14.4543 0.00484637 14.4407C0.00668799 14.4363 0.00914348 14.4319 0.0122129 14.4281C0.0975413 14.3181 0.324675 14.0259 2.65064 14.1185C5.53523 14.2333 8.42167 12.6426 10.6577 10.8827C11.3118 10.368 11.9217 9.79029 12.456 9.14433C13.0082 8.47686 13.3477 7.74521 13.7823 7.00786C14.2753 6.17155 15.4257 5.58977 16.3188 5.33398C16.3281 5.33145 16.3379 5.33177 16.3471 5.33525C16.4496 5.37319 18.3551 6.08682 19.3339 6.70211C19.608 6.87412 19.8093 7.03853 19.8784 7.17829C20.2044 7.83817 19.2375 9.77006 18.4465 10.9311V10.9314Z" fill="#FF2311"/>
<path opacity="0.6" d="M18.4465 10.9314C17.6258 12.1361 14.8904 14.0695 11.3078 15.9768C9.95267 16.6983 8.52909 17.0414 7.07636 16.9961C5.84769 16.9576 4.83265 16.6591 4.0914 16.4409C3.84923 16.3698 3.6399 16.3081 3.46372 16.2677C2.94192 16.1481 2.15525 15.8127 1.30503 15.3479C0.741495 15.0396 0.125166 14.6564 0.0180447 14.5116C0.0109851 14.5021 0.00638105 14.4935 0.00392556 14.4863C-0.0015993 14.4705 -0.00129237 14.4543 0.00484637 14.4407C1.34217 14.7727 3.32161 15.8547 4.5159 16.1418C8.85015 17.183 11.8388 14.7787 13.4137 13.8027C14.0886 13.3844 14.7077 12.8785 15.3201 12.3685C16.2728 11.5752 17.2234 10.7585 17.9665 9.75551C18.3695 9.21167 18.7074 8.61092 18.933 7.96622C19.0665 7.58522 19.0963 7.05687 19.3339 6.70243C19.608 6.87444 19.8093 7.03885 19.8784 7.17861C20.2044 7.83848 19.2375 9.77037 18.4465 10.9314Z" fill="#C91B16"/>
<path style="mix-blend-mode:lighten" d="M7.57884 15.4819C8.74028 15.2834 9.86429 14.8768 10.8806 14.2523C11.9585 13.5899 12.9441 12.7827 13.9631 12.0279C14.7446 11.449 15.5497 10.8982 16.2648 10.2345C16.98 9.57086 17.6098 8.78103 17.9484 7.85303C18.0515 7.57004 18.1273 7.25797 18.0454 6.9674C17.9469 6.6177 17.639 6.37107 17.3161 6.22341C16.7059 5.94454 15.9822 5.94264 15.3707 6.21899C14.9076 6.4283 14.5141 6.79444 14.2581 7.24311C13.9843 7.72308 13.9309 8.30739 13.6236 8.7687C13.3017 9.25215 12.8557 9.63631 12.4208 10.0069C11.0153 11.204 9.65066 12.611 7.99474 13.4188C7.54722 13.637 6.86828 14.0224 6.36459 14.0224C5.68074 14.2014 4.97939 14.2978 4.28878 14.4515C3.22647 14.6877 2.2102 14.3288 1.47693 14.4031C1.41861 14.4091 1.36889 14.4929 1.41555 14.5296C1.68596 14.743 2.52144 15.0718 2.70468 15.1303C4.2762 15.6324 5.96373 15.7586 7.57853 15.4823L7.57884 15.4819Z" fill="url(#paint0_linear_2276_362)"/>
<path style="mix-blend-mode:lighten" d="M11.275 11.6238C12.8001 10.4751 13.6163 9.70903 14.0613 8.96441C14.4386 8.33331 14.5002 7.69936 15.0168 7.05213C15.1777 6.8504 15.3437 6.63951 15.573 6.52821C15.8023 6.41691 16.3087 6.47541 16.4557 6.68788C16.9923 7.46443 16.3977 8.61123 16.0874 9.15412C15.6801 9.86681 14.1332 11.2289 13.325 11.5887C12.6924 11.8705 11.6675 12.5689 11.1457 12.9167C10.7341 13.1909 10.0414 13.6604 9.4318 13.5285C9.08926 13.4542 9.50547 13.114 9.65126 12.9904C10.1899 12.5348 10.7099 12.0494 11.275 11.6238Z" fill="url(#paint1_linear_2276_362)"/>
<path opacity="0.6" d="M15.0711 7.48404C14.9916 7.64118 14.9385 7.80845 14.9201 7.91816C14.8691 8.22486 15.2362 8.13254 15.3931 8.03863C15.5846 7.92417 15.9996 7.27062 15.673 7.10177C15.4229 6.97245 15.2077 7.2137 15.0708 7.48404H15.0711Z" fill="#FFD4D4"/>
<path opacity="0.6" d="M15.2125 8.00624C15.6422 8.16433 15.4044 8.5526 14.8749 9.17612C13.8006 10.4409 13.0517 10.7422 13.0026 10.7254C12.9535 10.7087 13.6164 10.2828 14.2303 9.36583C14.6797 8.69457 14.9838 7.92213 15.2125 8.00624Z" fill="#FFD4D4"/>
<path d="M19.9349 8.06139C19.8926 8.1749 19.833 8.2511 19.7756 8.26502C19.7548 8.27008 19.7302 8.26122 19.7007 8.23783C19.6958 8.23403 19.6909 8.22992 19.686 8.22518C19.5737 8.12463 19.3966 7.8369 19.1114 7.35377C18.9604 7.09798 18.7763 6.7859 18.7001 6.70528C18.6906 6.69516 18.6826 6.68852 18.6768 6.68631C18.6658 6.68472 18.6443 6.68852 18.6151 6.69611C18.5243 6.71982 18.3604 6.7799 18.2112 6.8346C17.7974 6.98573 17.4969 7.08976 17.3969 7.04865C17.3929 7.04707 17.3892 7.04518 17.3855 7.04296C17.3257 7.00723 17.2839 6.89088 17.2456 6.71381C17.2238 6.61453 17.2032 6.49628 17.1808 6.36253C17.1516 6.18958 17.1194 5.99765 17.0844 5.91102C17.0764 5.8911 17.0685 5.87656 17.0602 5.86928C17.047 5.85727 17.0074 5.84968 16.9515 5.84525C16.8478 5.83672 16.6885 5.83861 16.5418 5.84019C16.0577 5.84557 15.6989 5.83925 15.5902 5.71973C15.5872 5.71625 15.5841 5.71277 15.5813 5.70898C15.5749 5.70012 15.5697 5.69095 15.5657 5.68115C15.5451 5.63056 15.5531 5.56796 15.5893 5.49524C15.5918 5.48986 15.5945 5.48449 15.5976 5.47911C15.6108 5.45476 15.6277 5.42884 15.6476 5.40228C15.8659 5.10981 16.4647 4.70224 17.1041 4.5998C17.5289 4.53182 17.8502 4.19698 18.0789 3.84349C18.2551 3.57157 18.4177 3.27119 18.4929 2.94647C18.5761 2.58855 18.5289 2.22019 18.4708 1.86196C18.3917 1.3725 17.9908 0.914033 17.6799 0.54631C17.6633 0.526706 17.6458 0.505838 17.6406 0.480227C17.6357 0.456513 17.6418 0.432167 17.6479 0.408769C17.6713 0.32087 17.7164 0.179219 17.7904 0.0881577C17.8438 0.0214427 17.9128 -0.0183966 18 0.00847908C18.3244 0.109026 18.8812 1.03134 18.9708 1.51889C19.0728 2.0738 19.0276 3.24748 18.9914 4.19034L18.9905 4.21374C18.9868 4.3067 18.9828 4.3927 18.9788 4.47269C18.9441 5.19581 18.9325 5.43927 19.5531 6.37202C20.0316 7.09102 20.0642 7.71612 19.9349 8.06139Z" fill="#4F970F"/>
<path opacity="0.5" d="M19.9349 8.06139C19.8926 8.1749 19.833 8.2511 19.7756 8.26502C19.7548 8.27008 19.7302 8.26122 19.7007 8.23783C19.6958 8.23403 19.6909 8.22992 19.686 8.22518C19.5737 8.12463 19.3966 7.8369 19.1114 7.35377C18.9604 7.09798 18.7763 6.7859 18.7001 6.70528C18.6906 6.69516 18.6826 6.68852 18.6768 6.68631C18.6658 6.68472 18.6443 6.68852 18.6151 6.69611C18.5243 6.71982 18.3604 6.7799 18.2112 6.8346C17.7974 6.98573 17.4969 7.08976 17.3969 7.04865C17.3929 7.04707 17.3892 7.04518 17.3855 7.04296C17.3257 7.00723 17.2839 6.89088 17.2456 6.71381C17.2238 6.61453 17.2032 6.49628 17.1808 6.36253C17.1516 6.18958 17.1194 5.99765 17.0844 5.91102C17.0764 5.8911 17.0685 5.87656 17.0602 5.86928C17.047 5.85727 17.0074 5.84968 16.9515 5.84525C16.8478 5.83672 16.6885 5.83861 16.5418 5.84019C16.0577 5.84557 15.6989 5.83925 15.5902 5.71973C15.5872 5.71625 15.5841 5.71277 15.5813 5.70898C15.5749 5.70012 15.5697 5.69095 15.5657 5.68115C15.5451 5.63056 15.5531 5.56796 15.5893 5.49524C15.5918 5.48986 15.5945 5.48449 15.5976 5.47911C15.6108 5.45476 15.6277 5.42884 15.6476 5.40228C15.6476 5.50061 15.6578 5.59167 15.6885 5.64448C15.8201 5.87086 16.2934 5.64416 16.4794 5.61855C16.7578 5.57997 17.078 5.63594 17.2827 5.8481C17.4555 6.02674 17.473 6.34356 17.6863 6.46751C17.8619 6.56932 18.081 6.48679 18.2631 6.39826C18.4454 6.30941 18.6547 6.21392 18.8404 6.29487C18.9788 6.35494 19.0635 6.49786 19.1808 6.59493C19.2057 6.6158 19.2351 6.6354 19.267 6.63319C19.3137 6.63002 19.3468 6.5807 19.3499 6.53296C19.3622 6.34261 19.1805 6.13045 19.0952 5.97299C19.02 5.83419 18.9451 5.69412 18.8849 5.54741C18.8051 5.35264 18.7729 5.15976 18.7885 4.94887C18.8192 4.53783 18.7885 4.03193 18.8806 2.70396C18.9727 1.37598 18.6964 1.34436 18.5737 0.901702C18.4616 0.497617 17.8892 0.146336 17.7904 0.0881577C17.8438 0.0214427 17.9128 -0.0183966 18 0.00847908C18.3244 0.109026 18.8812 1.03134 18.9708 1.51889C19.0728 2.0738 19.0276 3.24748 18.9914 4.19034L18.9905 4.21374C18.9868 4.3067 18.9828 4.3927 18.9788 4.47269C18.9441 5.19581 18.9325 5.43927 19.5531 6.37202C20.0316 7.09102 20.0642 7.71612 19.9349 8.06139Z" fill="#3F720E"/>
<path d="M18.4202 3.87384C18.4868 3.89092 18.3588 4.34812 18.4202 4.60107C18.4815 4.85402 18.635 5.32829 18.5736 5.39153C18.5122 5.45477 18.236 4.94887 18.0825 5.01211C17.9291 5.07535 18.4815 5.86581 18.1746 6.0239C17.8677 6.18199 17.3152 5.07535 16.5172 5.20182C16.3023 5.1702 17.1617 4.8224 17.6221 4.60107C18.0825 4.37974 18.2974 3.84222 18.4202 3.87384Z" fill="url(#paint2_linear_2276_362)"/>
<path d="M17.1172 4.92864C17.0546 4.94887 16.9914 4.97227 16.9411 5.01527C16.9294 5.02539 16.9177 5.03772 16.9162 5.05321C16.9128 5.08799 16.957 5.10349 16.9908 5.10886C17.0479 5.11803 17.1047 5.13321 17.1562 5.1604C17.2176 5.19297 17.2698 5.24166 17.3299 5.27612C17.3904 5.31059 17.4656 5.33019 17.5279 5.2992C17.5657 5.28055 17.5933 5.24577 17.6188 5.21162C17.6716 5.14016 17.7201 5.06523 17.7637 4.98745C17.7913 4.93812 17.8174 4.88627 17.8229 4.82967C17.8278 4.7794 17.8075 4.67885 17.7443 4.68201C17.7188 4.68328 17.6771 4.72375 17.6541 4.73671C17.6206 4.75537 17.5862 4.77181 17.5513 4.78667C17.4107 4.84674 17.2618 4.88184 17.1169 4.92864H17.1172Z" fill="#84C93D"/>
<path style="mix-blend-mode:lighten" opacity="0.5" d="M18.3794 0.748352C18.2646 0.574134 18.1 0.432167 17.9051 0.368614C17.8929 0.439756 17.8812 0.517537 17.9153 0.580458C17.9248 0.598165 17.9374 0.613658 17.9503 0.628834C18.0248 0.716418 18.1228 0.767007 18.1746 0.8704C18.314 1.14864 18.4644 1.52174 18.543 1.56601C18.543 1.18658 18.543 0.996874 18.3794 0.748669V0.748352Z" fill="url(#paint3_linear_2276_362)"/>
<defs>
<linearGradient id="paint0_linear_2276_362" x1="16.5644" y1="8.56508" x2="2.76039" y2="14.9649" gradientUnits="userSpaceOnUse">
<stop stop-color="#FE492E"/>
<stop offset="0.44" stop-color="#FC482D"/>
<stop offset="0.6" stop-color="#F5462C"/>
<stop offset="0.71" stop-color="#E9432B"/>
<stop offset="0.81" stop-color="#D83F28"/>
<stop offset="0.89" stop-color="#C23925"/>
<stop offset="0.95" stop-color="#A83222"/>
<stop offset="1" stop-color="#912C1F"/>
</linearGradient>
<linearGradient id="paint1_linear_2276_362" x1="16.271" y1="7.19093" x2="10.1881" y2="13.7492" gradientUnits="userSpaceOnUse">
<stop stop-color="#FE7147"/>
<stop offset="0.31" stop-color="#FB7046"/>
<stop offset="0.48" stop-color="#F36C44"/>
<stop offset="0.6" stop-color="#E66742"/>
<stop offset="0.72" stop-color="#D3603E"/>
<stop offset="0.81" stop-color="#BA5639"/>
<stop offset="0.91" stop-color="#9C4A33"/>
<stop offset="0.99" stop-color="#783C2C"/>
<stop offset="1" stop-color="#733A2B"/>
</linearGradient>
<linearGradient id="paint2_linear_2276_362" x1="17.5537" y1="4.3263" x2="17.5211" y2="5.90719" gradientUnits="userSpaceOnUse">
<stop stop-color="#6DB528"/>
<stop offset="0.87" stop-color="#539B12"/>
<stop offset="1" stop-color="#4F970F"/>
</linearGradient>
<linearGradient id="paint3_linear_2276_362" x1="18.0546" y1="0.537773" x2="18.4971" y2="1.18459" gradientUnits="userSpaceOnUse">
<stop stop-color="#76BC33"/>
<stop offset="0.43" stop-color="#74BA32"/>
<stop offset="0.59" stop-color="#70B330"/>
<stop offset="0.7" stop-color="#69A72D"/>
<stop offset="0.79" stop-color="#5E9628"/>
<stop offset="0.87" stop-color="#508022"/>
<stop offset="0.93" stop-color="#3F661B"/>
<stop offset="0.99" stop-color="#2C4612"/>
<stop offset="1" stop-color="#2A4312"/>
</linearGradient>
</defs>
</svg>
