<svg width="83" height="33" viewBox="0 0 83 33" fill="none" xmlns="http://www.w3.org/2000/svg">
<path d="M13.005 0.45001C14.535 0.45001 15.99 0.91501 17.37 1.84501C18.75 2.74501 19.86 3.97501 20.7 5.53501C21.54 7.06501 21.96 8.74501 21.96 10.575C21.96 12.375 21.54 14.055 20.7 15.615C19.86 17.175 18.75 18.42 17.37 19.35C15.99 20.25 14.535 20.7 13.005 20.7H5.175V29.205C5.175 30.015 4.935 30.675 4.455 31.185C3.975 31.695 3.345 31.95 2.565 31.95C1.815 31.95 1.2 31.695 0.72 31.185C0.24 30.645 1.3411e-07 29.985 1.3411e-07 29.205V3.19501C1.3411e-07 2.41501 0.255 1.77001 0.765 1.26001C1.305 0.72001 1.965 0.45001 2.745 0.45001H13.005ZM13.005 15.57C13.575 15.57 14.13 15.33 14.67 14.85C15.24 14.37 15.69 13.755 16.02 13.005C16.38 12.225 16.56 11.415 16.56 10.575C16.56 9.73501 16.38 8.94001 16.02 8.19001C15.69 7.41001 15.24 6.79501 14.67 6.34501C14.13 5.86501 13.575 5.62501 13.005 5.62501H5.175V15.57H13.005Z" fill="#3D8493"/>
<path d="M56.0943 16.2C56.0943 19.17 55.4343 21.9 54.1143 24.39C52.7943 26.85 50.9643 28.8 48.6243 30.24C46.3143 31.68 43.7043 32.4 40.7943 32.4C37.8843 32.4 35.2593 31.68 32.9193 30.24C30.6093 28.8 28.7943 26.85 27.4743 24.39C26.1843 21.9 25.5393 19.17 25.5393 16.2C25.5393 13.23 26.1843 10.515 27.4743 8.05501C28.7943 5.56501 30.6093 3.60001 32.9193 2.16001C35.2593 0.72001 37.8843 1.04904e-05 40.7943 1.04904e-05C43.7043 1.04904e-05 46.3143 0.72001 48.6243 2.16001C50.9643 3.60001 52.7943 5.56501 54.1143 8.05501C55.4343 10.515 56.0943 13.23 56.0943 16.2ZM50.2443 16.2C50.2443 14.19 49.8393 12.375 49.0293 10.755C48.2193 9.10501 47.0943 7.80001 45.6543 6.84001C44.2143 5.88001 42.5943 5.40001 40.7943 5.40001C38.9643 5.40001 37.3293 5.88001 35.8893 6.84001C34.4793 7.77001 33.3693 9.06001 32.5593 10.71C31.7793 12.36 31.3893 14.19 31.3893 16.2C31.3893 18.21 31.7793 20.04 32.5593 21.69C33.3693 23.34 34.4793 24.645 35.8893 25.605C37.3293 26.535 38.9643 27 40.7943 27C42.5943 27 44.2143 26.52 45.6543 25.56C47.0943 24.6 48.2193 23.31 49.0293 21.69C49.8393 20.04 50.2443 18.21 50.2443 16.2Z" fill="#D89F65"/>
<path d="M71.3848 32.4C69.2248 32.4 67.3048 32.13 65.6248 31.59C63.9448 31.05 62.3698 30.135 60.8998 28.845C60.0898 28.125 59.6848 27.33 59.6848 26.46C59.6848 25.77 59.9398 25.17 60.4498 24.66C60.9598 24.12 61.5748 23.85 62.2948 23.85C62.8648 23.85 63.3748 24.03 63.8248 24.39C65.0248 25.38 66.1948 26.1 67.3348 26.55C68.4748 27 69.8248 27.225 71.3848 27.225C73.0648 27.225 74.5048 26.85 75.7048 26.1C76.9348 25.35 77.5498 24.42 77.5498 23.31C77.5498 21.96 76.9498 20.91 75.7498 20.16C74.5498 19.38 72.6448 18.795 70.0348 18.405C63.4648 17.445 60.1798 14.385 60.1798 9.22501C60.1798 7.33501 60.6748 5.70001 61.6648 4.32001C62.6548 2.91001 64.0048 1.84501 65.7148 1.12501C67.4248 0.37501 69.3298 1.04904e-05 71.4298 1.04904e-05C73.3198 1.04904e-05 75.0898 0.28501 76.7398 0.85501C78.4198 1.42501 79.8148 2.17501 80.9248 3.10501C81.7948 3.79501 82.2298 4.59001 82.2298 5.49001C82.2298 6.18001 81.9748 6.79501 81.4648 7.33501C80.9548 7.84501 80.3548 8.10001 79.6648 8.10001C79.2148 8.10001 78.8098 7.96501 78.4498 7.69501C77.6698 7.06501 76.5748 6.49501 75.1648 5.98501C73.7848 5.44501 72.5398 5.17501 71.4298 5.17501C69.5398 5.17501 68.0698 5.53501 67.0198 6.25501C65.9998 6.94501 65.4898 7.86001 65.4898 9.00001C65.4898 10.29 66.0148 11.265 67.0648 11.925C68.1448 12.585 69.8248 13.125 72.1048 13.545C74.6848 13.995 76.7398 14.58 78.2698 15.3C79.8298 15.99 80.9998 16.95 81.7798 18.18C82.5598 19.38 82.9498 20.985 82.9498 22.995C82.9498 24.885 82.4098 26.55 81.3298 27.99C80.2798 29.4 78.8698 30.495 77.0998 31.275C75.3298 32.025 73.4248 32.4 71.3848 32.4Z" fill="#4A5C2F"/>
</svg>
